<mxfile host="app.diagrams.net" modified="2023-03-31T06:24:06.493Z" agent="Mozilla/5.0 (Windows NT 10.0; Win64; x64) AppleWebKit/537.36 (KHTML, like Gecko) Chrome/111.0.0.0 Safari/537.36" version="21.1.2" etag="beuhSHb8XQjGOahNhBRy" type="github">
  <diagram name="Page-1" id="NGP7mrp8UXEf2Iv35qrc">
    <mxGraphModel>
      <root>
        <mxCell id="0" />
        <mxCell id="1" parent="0" />
      </root>
    </mxGraphModel>
  </diagram>
</mxfile>
